<?xml version="1.0" standalone="no"?>
<!DOCTYPE svg PUBLIC "-//W3C//DTD SVG 20010904//EN"
 "http://www.w3.org/TR/2001/REC-SVG-20010904/DTD/svg10.dtd">
<svg version="1.0" xmlns="http://www.w3.org/2000/svg"
 width="16.000000pt" height="16.000000pt" viewBox="0 0 16.000000 16.000000"
 preserveAspectRatio="xMidYMid meet">
<metadata>
Created by potrace 1.11, written by Peter Selinger 2001-2013
</metadata>
<g transform="translate(0.000000,16.000000) scale(0.003478,-0.003478)"
fill="#000000" stroke="none">
<path d="M0 4057 l0 -542 30 -13 c17 -8 37 -27 45 -43 16 -30 44 -31 41 -1 -1
13 8 17 36 19 30 2 40 -2 49 -20 7 -12 13 -23 14 -25 2 -2 15 4 28 13 30 19
92 12 106 -13 9 -15 11 -15 28 -1 10 9 24 14 32 11 10 -3 11 -6 1 -12 -7 -4
-9 -13 -6 -19 5 -8 13 -7 28 4 16 10 25 11 34 4 7 -6 23 -9 36 -7 17 2 22 9
21 24 -3 26 36 41 52 20 8 -10 15 -8 34 10 14 13 28 21 32 18 4 -2 10 0 14 6
3 5 15 10 25 10 10 0 35 9 55 21 19 12 42 19 50 15 19 -7 31 14 14 25 -11 7
-11 9 3 9 9 0 21 6 25 13 4 7 22 23 40 35 17 13 35 32 38 43 5 14 12 18 26 14
13 -4 19 -2 19 9 0 16 59 76 75 76 6 0 15 10 20 23 6 12 16 22 23 22 8 0 19 8
26 17 7 10 16 15 19 11 4 -3 7 3 7 15 0 12 6 22 14 22 8 0 18 12 24 28 5 15
21 40 36 55 14 15 26 32 26 38 0 5 7 9 15 9 8 0 23 18 32 40 10 22 21 40 25
40 5 0 8 12 8 26 0 14 4 23 10 19 5 -3 10 1 10 9 0 9 5 16 11 16 5 0 15 13 20
30 6 16 19 32 30 35 10 4 19 10 19 14 0 11 80 91 90 91 5 0 18 13 30 29 11 17
29 32 39 36 10 3 21 15 25 27 3 12 8 19 12 16 3 -4 23 8 43 27 54 50 83 71
109 79 12 4 22 12 22 17 0 6 16 17 35 25 19 8 35 16 35 19 0 3 -414 5 -920 5
l-920 0 0 -543z"/>
<path d="M2900 4585 c7 -8 20 -15 29 -15 19 0 91 -86 91 -109 1 -20 24 -51 38
-51 7 0 9 -11 6 -30 -5 -25 0 -36 35 -71 22 -23 41 -48 41 -56 0 -7 7 -16 15
-19 8 -4 15 -11 15 -18 0 -18 59 -84 60 -66 0 8 11 -1 23 -21 39 -63 89 -120
113 -130 15 -5 24 -17 24 -29 0 -17 5 -20 28 -18 24 3 27 -1 30 -29 3 -27 32
-70 32 -47 0 5 9 -4 20 -21 16 -24 20 -26 20 -11 0 18 1 18 20 1 11 -10 20
-29 20 -41 0 -18 11 -29 48 -46 32 -16 52 -34 64 -58 14 -26 18 -30 19 -15 0
14 2 16 6 5 8 -21 75 -80 85 -74 4 3 8 -2 8 -10 0 -9 5 -16 11 -16 6 0 9 -7 5
-15 -3 -10 1 -15 14 -15 10 0 22 -5 25 -10 4 -6 12 -7 18 -4 7 4 9 4 5 0 -3
-4 12 -26 33 -49 22 -22 43 -53 46 -69 5 -28 23 -40 23 -15 0 15 43 -35 72
-85 12 -21 25 -38 30 -38 4 0 8 -9 8 -21 0 -14 5 -19 18 -17 15 3 17 15 17 90
0 48 3 80 6 70 5 -14 7 -15 11 -2 3 10 4 9 3 -2 -2 -12 3 -18 16 -18 24 0 24
-14 0 -37 -15 -14 -18 -28 -15 -68 2 -27 4 -67 4 -87 0 -29 6 -42 24 -53 14
-10 24 -25 24 -41 0 -14 5 -31 11 -37 8 -8 11 -8 11 2 0 10 3 11 14 2 7 -6 11
-22 8 -36 -2 -15 0 -25 7 -25 6 0 11 -7 11 -15 0 -8 9 -24 21 -36 12 -12 24
-42 28 -70 5 -27 15 -57 25 -67 9 -10 16 -25 16 -33 0 -9 9 -25 19 -36 11 -12
17 -24 14 -27 -4 -3 1 -6 10 -6 21 0 21 13 3 65 -11 30 -11 42 -3 47 12 8 -1
22 -27 31 -5 2 -11 30 -12 63 -1 32 -12 85 -24 117 -24 65 -21 80 12 51 20
-18 21 -18 15 -1 -4 10 -7 21 -7 23 0 2 -7 4 -15 4 -9 0 -23 17 -32 38 -10 20
-24 45 -32 55 -8 9 -11 20 -7 24 4 4 11 1 16 -7 7 -10 10 -11 10 -2 0 6 4 12
10 12 5 0 7 -7 4 -15 -3 -8 2 -24 11 -37 10 -13 15 -16 12 -7 -4 11 0 16 11
15 12 -1 17 7 17 29 0 17 -2 32 -5 35 -19 19 -51 103 -44 118 4 9 6 23 5 31
-1 7 2 10 8 6 7 -4 9 -22 4 -48 -6 -38 -5 -41 10 -29 11 10 14 26 11 60 -7 84
-15 112 -37 135 -12 13 -31 35 -41 50 -22 31 -36 35 -36 9 0 -10 -3 -21 -6
-25 -11 -11 -34 5 -34 23 0 11 -4 22 -10 25 -12 7 -14 55 -2 55 4 0 13 -14 20
-32 6 -17 15 -29 18 -25 4 4 2 12 -3 19 -6 7 -13 25 -17 41 -3 15 -11 27 -16
27 -6 0 -10 7 -10 15 0 18 -9 19 -45 5 -25 -9 -25 -11 -9 -35 11 -16 14 -34 9
-52 -5 -20 -8 -24 -15 -13 -5 8 -6 18 -4 22 3 4 -2 5 -11 2 -16 -7 -16 -12 1
-79 4 -15 3 -16 -4 -6 -12 17 -18 0 -27 -79 -7 -66 -27 -106 -23 -47 2 23 -3
41 -11 46 -8 5 -9 11 -3 15 12 7 13 56 0 56 -5 0 -6 5 -3 11 4 6 13 8 21 5 12
-4 14 4 10 45 -4 41 -2 48 9 39 20 -17 30 7 12 28 -18 20 -16 58 3 54 8 -2 10
3 6 15 -6 14 -5 16 5 6 21 -21 31 -15 27 15 -2 17 -9 27 -20 27 -9 0 -20 4
-24 8 -4 4 -2 7 4 7 7 0 12 5 12 10 0 6 -6 10 -14 10 -18 0 -33 43 -17 48 6 2
11 10 11 19 0 10 -6 12 -20 8 -15 -5 -21 -1 -24 17 -12 54 -11 73 4 73 9 0 15
9 14 23 0 12 3 22 8 22 4 0 8 4 8 8 0 4 -9 8 -20 8 -15 0 -19 -5 -15 -21 5
-18 4 -17 -12 4 -28 36 -63 153 -52 173 5 9 9 37 9 62 0 27 5 46 11 46 8 0 9
11 5 33 -3 17 -3 27 2 21 4 -6 15 -10 25 -8 21 3 23 -12 1 -20 -12 -5 -14 -9
-5 -20 11 -13 9 -90 -4 -139 -9 -33 2 -97 17 -97 6 0 8 9 4 23 -11 36 -12 42
-2 47 6 3 14 -10 18 -28 5 -18 13 -30 18 -27 6 4 10 -3 10 -14 0 -12 5 -21 10
-21 6 0 10 -7 10 -15 0 -8 -7 -15 -15 -15 -19 0 -19 -30 0 -58 9 -12 19 -45
22 -74 7 -56 29 -102 45 -92 5 3 9 0 7 -7 -4 -31 2 -49 16 -49 8 0 15 -4 15
-10 0 -5 3 -10 8 -10 15 0 11 61 -4 67 -13 5 -13 7 -2 14 10 7 10 9 -3 9 -12
0 -16 12 -16 58 0 57 -17 148 -35 188 -5 11 -9 27 -7 35 1 8 -1 26 -5 40 -4
14 -8 32 -10 41 -1 9 -7 22 -13 30 -12 14 -14 98 -3 98 15 -1 40 -54 55 -119
10 -40 27 -81 37 -91 11 -10 20 -34 21 -56 2 -21 9 -40 16 -42 9 -3 11 0 7 7
-4 7 -1 22 8 35 14 23 11 60 -11 116 -3 8 -5 28 -4 44 2 16 -2 32 -9 36 -6 4
-12 20 -13 35 -1 16 -8 30 -16 33 -10 3 -12 -5 -6 -37 4 -26 3 -41 -3 -41 -17
0 -22 32 -13 80 5 25 9 37 10 27 1 -10 7 -17 14 -14 13 4 13 20 3 62 -5 21 -3
25 14 25 13 0 20 -7 20 -20 0 -11 5 -20 10 -20 14 0 12 27 -4 75 -19 57 -27
105 -17 105 14 0 40 -111 50 -217 5 -55 14 -110 20 -122 9 -15 8 -25 -1 -40
-9 -15 -9 -23 2 -36 10 -12 11 -18 2 -24 -9 -5 -10 -75 -1 -88 4 -7 1 -40 -6
-56 -4 -10 -2 -24 6 -34 11 -13 11 -17 2 -20 -7 -3 -13 -13 -13 -24 0 -15 -5
-18 -24 -13 -31 7 -42 -22 -26 -70 6 -19 10 -38 9 -42 -3 -17 14 -74 23 -80 6
-4 9 13 7 42 -3 70 0 96 11 89 6 -3 10 -23 11 -43 1 -57 34 -167 48 -164 10 2
12 -7 9 -33 -2 -19 0 -35 5 -35 4 0 5 -5 1 -12 -4 -6 0 -16 8 -22 16 -12 22
-59 19 -143 -1 -31 -5 -43 -16 -43 -8 0 -15 -5 -15 -10 0 -6 6 -9 13 -8 7 2
13 -9 15 -24 2 -16 8 -28 13 -28 5 0 9 -18 9 -40 0 -30 -4 -40 -16 -40 -11 0
-14 -6 -8 -22 9 -30 10 -32 30 -24 9 3 14 12 11 19 -3 8 0 14 7 14 7 0 11 -11
8 -27 -2 -15 4 -35 15 -48 l18 -23 3 46 c1 26 -2 44 -7 41 -5 -3 -7 2 -4 12 2
10 -1 31 -8 47 -7 17 -12 33 -11 38 1 4 -5 7 -13 7 -9 0 -20 11 -25 25 -9 24
-6 162 4 172 3 3 2 19 -1 35 -4 20 -1 33 8 39 11 7 10 11 -5 22 -13 10 -15 16
-8 21 7 4 12 14 12 22 0 8 -4 13 -9 10 -5 -3 -8 32 -6 81 2 71 5 87 19 89 9 1
16 -3 16 -9 0 -5 3 -7 6 -4 4 4 0 17 -8 29 -13 21 -32 108 -23 108 16 0 62
-137 70 -206 4 -33 12 -75 18 -94 6 -19 10 -47 9 -62 -2 -21 1 -26 13 -21 15
5 16 16 3 122 0 3 0 38 1 76 1 47 4 65 11 55 5 -8 12 -11 16 -7 10 9 -15 37
-35 38 -11 0 -9 3 6 9 22 9 22 10 7 55 -10 26 -20 42 -26 38 -6 -3 -8 -2 -5 4
8 13 -11 85 -26 98 -7 6 -19 24 -28 41 -16 30 -16 31 7 26 23 -4 38 -27 28
-43 -3 -5 0 -9 5 -9 12 0 13 79 1 95 -9 13 -30 98 -25 103 8 8 25 -10 19 -19
-3 -6 0 -18 8 -27 8 -9 20 -39 26 -65 15 -59 65 -131 71 -102 2 10 -4 24 -13
30 -9 7 -14 14 -11 16 2 3 0 21 -4 42 -8 35 -8 36 11 26 19 -10 20 -9 14 15
-4 16 -2 26 5 26 6 0 9 -14 8 -34 -2 -19 4 -44 13 -57 15 -23 17 -7 17 254 l1
277 -217 -1 c-120 0 -212 -3 -205 -6 19 -7 14 -23 -7 -23 -10 0 -22 7 -25 16
-8 20 -116 18 -116 -2 0 -15 34 -36 44 -27 3 3 6 2 6 -3 -1 -11 -25 -44 -33
-44 -10 0 -37 71 -31 81 3 5 -2 9 -10 9 -8 0 -17 -8 -19 -17 -4 -17 -5 -17 -6
0 -2 27 -21 20 -21 -8 0 -14 -4 -25 -10 -25 -5 0 -10 11 -10 25 l0 25 -335 0
c-289 0 -336 -2 -341 -15 -4 -8 -12 -15 -20 -15 -17 0 -18 17 -1 23 6 3 -71 6
-172 6 -162 1 -182 -1 -171 -14z m997 -57 c-3 -8 -6 -5 -6 6 -1 11 2 17 5 13
3 -3 4 -12 1 -19z m103 -8 c0 -10 5 -22 11 -25 7 -5 5 -15 -5 -31 -9 -13 -16
-33 -16 -44 0 -13 -5 -20 -12 -18 -17 6 -23 115 -7 134 14 17 29 9 29 -16z
m-260 -6 c0 -8 -4 -14 -10 -14 -5 0 -10 9 -10 21 0 11 5 17 10 14 6 -3 10 -13
10 -21z m375 16 c4 -6 3 -25 -1 -43 -7 -32 -7 -32 -15 -7 -10 36 -10 60 0 60
6 0 13 -5 16 -10z m165 0 c0 -5 -5 -10 -11 -10 -5 0 -7 5 -4 10 3 6 8 10 11
10 2 0 4 -4 4 -10z m95 0 c3 -5 1 -10 -4 -10 -6 0 -11 5 -11 10 0 6 2 10 4 10
3 0 8 -4 11 -10z m215 -10 c0 -5 -2 -10 -4 -10 -3 0 -8 5 -11 10 -3 6 -1 10 4
10 6 0 11 -4 11 -10z m-413 -32 c-3 -8 -6 -5 -6 6 -1 11 2 17 5 13 3 -3 4 -12
1 -19z m-107 -4 c0 -8 -4 -12 -10 -9 -5 3 -10 10 -10 16 0 5 5 9 10 9 6 0 10
-7 10 -16z m80 6 c0 -5 -2 -10 -4 -10 -3 0 -8 5 -11 10 -3 6 -1 10 4 10 6 0
11 -4 11 -10z m-493 -37 c-3 -10 -5 -4 -5 12 0 17 2 24 5 18 2 -7 2 -21 0 -30z
m260 5 c-3 -8 -6 -5 -6 6 -1 11 2 17 5 13 3 -3 4 -12 1 -19z m395 -50 c3 -16
1 -28 -4 -28 -9 0 -21 26 -32 75 l-8 30 20 -25 c10 -14 21 -37 24 -52z m-564
11 c-3 -33 -4 -33 -8 8 -3 23 -2 39 3 34 5 -5 7 -24 5 -42z m-328 31 c0 -5 -4
-10 -10 -10 -5 0 -10 5 -10 10 0 6 5 10 10 10 6 0 10 -4 10 -10z m435 -89 c-8
-8 -17 6 -25 43 -11 51 2 54 17 4 6 -23 10 -44 8 -47z m295 42 l-1 -38 -19 24
c-26 30 -25 51 0 51 17 0 20 -7 20 -37z m230 -55 c0 -19 -2 -20 -10 -8 -13 19
-13 30 0 30 6 0 10 -10 10 -22z m90 -20 c-1 -28 -2 -30 -11 -15 -6 10 -8 25
-5 33 9 24 16 16 16 -18z m-533 -30 c-3 -8 -6 -5 -6 6 -1 11 2 17 5 13 3 -3 4
-12 1 -19z m-180 -50 c-3 -7 -5 -2 -5 12 0 14 2 19 5 13 2 -7 2 -19 0 -25z
m653 28 c0 -3 -4 -8 -10 -11 -5 -3 -10 -1 -10 4 0 6 5 11 10 11 6 0 10 -2 10
-4z m-880 -51 c0 -5 -5 -3 -10 5 -5 8 -10 20 -10 25 0 6 5 3 10 -5 5 -8 10
-19 10 -25z m817 -7 c-3 -8 -6 -5 -6 6 -1 11 2 17 5 13 3 -3 4 -12 1 -19z
m-152 2 c3 -5 1 -10 -4 -10 -6 0 -11 5 -11 10 0 6 2 10 4 10 3 0 8 -4 11 -10z
m365 -10 c0 -5 -4 -10 -10 -10 -5 0 -10 5 -10 10 0 6 5 10 10 10 6 0 10 -4 10
-10z m-30 -29 c0 -18 -18 -21 -30 -6 -10 13 -9 15 9 15 11 0 21 -4 21 -9z
m-200 -31 c0 -5 -4 -10 -10 -10 -5 0 -10 5 -10 10 0 6 5 10 10 10 6 0 10 -4
10 -10z m85 -10 c3 -5 1 -10 -5 -10 -6 0 -9 -4 -5 -9 3 -5 1 -12 -5 -16 -6 -4
-10 5 -10 19 0 26 14 35 25 16z m-669 -87 c-4 -4 -14 1 -22 11 -22 31 -17 43
8 19 12 -13 18 -26 14 -30z m602 -19 c0 -31 -3 -43 -10 -36 -8 8 -2 82 7 82 2
0 3 -21 3 -46z m36 -24 c3 -31 2 -62 -4 -70 -8 -12 -10 -8 -11 15 0 17 -3 52
-5 80 -6 68 12 46 20 -25z m-140 -148 c-6 -4 -13 -14 -16 -22 -3 -10 -6 -8
-10 8 -5 18 -2 22 15 22 13 0 17 -3 11 -8z m-250 -258 c3 -8 2 -12 -4 -9 -6 3
-10 10 -10 16 0 14 7 11 14 -7z m133 -26 c-3 -8 -6 -5 -6 6 -1 11 2 17 5 13 3
-3 4 -12 1 -19z m123 -10 c0 -5 -4 -8 -10 -8 -5 0 -10 10 -10 23 0 18 2 19 10
7 5 -8 10 -18 10 -22z m-30 -34 c0 -9 -11 -14 -30 -14 -16 0 -30 5 -30 11 0 5
5 7 10 4 6 -3 10 0 10 8 0 10 7 13 20 10 11 -3 20 -12 20 -19z m-113 -6 c-3
-8 -6 -5 -6 6 -1 11 2 17 5 13 3 -3 4 -12 1 -19z m22 -45 c-1 -38 -1 -38 -9
-9 -8 27 -6 46 6 46 2 0 4 -17 3 -37z m61 -19 c0 -9 -5 -14 -12 -12 -18 6 -21
28 -4 28 9 0 16 -7 16 -16z m90 -70 c0 -8 -4 -12 -10 -9 -5 3 -10 10 -10 16 0
5 5 9 10 9 6 0 10 -7 10 -16z m-198 -66 c-6 -6 -9 0 -9 18 0 23 1 24 9 10 7
-12 7 -21 0 -28z m105 -30 c-3 -8 -6 -5 -6 6 -1 11 2 17 5 13 3 -3 4 -12 1
-19z m136 -73 c-3 -9 -8 -14 -10 -11 -3 3 -2 9 2 15 9 16 15 13 8 -4z m97 -17
c0 -26 -24 -18 -28 10 -3 16 1 20 12 16 9 -3 16 -15 16 -26z m-140 -52 c0 -3
-4 -8 -10 -11 -5 -3 -10 -1 -10 4 0 6 5 11 10 11 6 0 10 -2 10 -4z m37 -298
c-3 -7 -5 -2 -5 12 0 14 2 19 5 13 2 -7 2 -19 0 -25z"/>
<path d="M4046 4533 c-6 -14 -5 -15 5 -6 7 7 10 15 7 18 -3 3 -9 -2 -12 -12z"/>
<path d="M2348 4484 c-4 -3 -27 -6 -52 -6 -25 0 -46 -4 -46 -9 0 -5 -13 -9
-30 -9 -16 0 -30 -4 -30 -10 0 -5 -15 -13 -34 -19 -19 -5 -41 -14 -48 -20 -7
-6 -44 -33 -83 -61 -38 -27 -74 -54 -80 -59 -56 -58 -81 -81 -89 -81 -11 0
-56 -48 -56 -61 0 -5 -5 -9 -11 -9 -5 0 -14 -12 -20 -28 -5 -15 -19 -32 -31
-37 -14 -6 -25 -23 -29 -43 -4 -18 -16 -43 -27 -55 -12 -12 -21 -24 -21 -27 0
-6 -6 -28 -17 -55 -4 -11 -6 -24 -5 -29 1 -4 -4 -18 -12 -30 -23 -37 -53 -191
-57 -296 -3 -69 -5 -84 -11 -95 -3 -5 -7 -35 -9 -65 -1 -30 -3 -74 -4 -97 -2
-24 2 -43 8 -43 5 0 2 -6 -9 -13 -22 -17 -11 -40 14 -32 10 3 25 -3 35 -14 16
-18 16 -19 -6 -24 -13 -4 -24 -2 -26 3 -6 18 -34 11 -30 -7 2 -13 12 -17 38
-16 56 3 80 -5 80 -27 0 -27 17 -26 25 1 7 21 8 21 31 -7 13 -16 23 -33 23
-39 1 -5 -4 -3 -9 5 -8 12 -10 10 -10 -8 0 -13 4 -20 10 -17 10 6 19 -9 24
-42 2 -14 12 -18 49 -18 26 -1 47 3 47 7 0 13 28 9 33 -4 8 -23 30 8 29 41 -1
31 19 56 39 49 8 -3 6 -9 -5 -20 -21 -22 -20 -35 4 -43 11 -3 20 -12 20 -19 0
-29 27 -38 60 -21 30 15 33 15 46 -2 12 -16 13 -15 14 15 0 17 5 32 11 32 6 0
8 9 4 20 -5 15 0 23 19 31 21 10 23 15 15 30 -5 11 -16 19 -24 19 -23 0 -17
18 7 22 32 5 35 28 3 28 -21 0 -25 4 -20 19 4 13 -1 24 -15 34 -15 11 -18 16
-8 19 10 4 9 10 -4 25 -10 11 -18 25 -18 31 0 15 26 16 33 2 3 -6 4 -5 3 2 -1
7 -14 14 -29 16 -23 3 -26 7 -20 33 3 17 1 29 -5 29 -6 0 -13 9 -17 19 -3 10
-15 21 -27 24 -16 5 -19 12 -16 31 3 14 1 26 -3 26 -5 0 -9 6 -9 14 0 7 -9 16
-20 19 -11 3 -20 1 -20 -5 0 -5 -4 -6 -10 -3 -5 3 -10 22 -10 41 0 27 -4 34
-20 34 -23 0 -26 10 -8 28 9 9 7 12 -10 12 -13 0 -22 5 -20 13 4 20 -21 57
-40 58 -14 0 -14 2 -2 6 29 12 42 34 38 66 -3 31 -2 33 30 35 19 2 39 4 46 5
6 1 10 -6 8 -15 -2 -10 2 -18 8 -18 21 0 10 -39 -12 -43 -21 -3 -21 -4 -5 -11
24 -11 62 21 46 40 -8 9 2 25 39 64 45 47 71 55 56 17 -3 -9 2 -16 15 -20 14
-3 22 1 26 14 3 10 15 21 26 24 19 6 23 16 20 43 -3 16 38 7 54 -12 6 -7 37
-13 70 -14 33 -1 62 -7 63 -12 2 -6 10 -10 17 -10 7 0 15 -5 17 -12 6 -17 28
0 28 23 0 20 15 26 25 9 4 -6 1 -17 -5 -25 -10 -12 -9 -15 6 -15 18 -1 18 -1
0 -15 -19 -15 -19 -15 1 -15 12 0 25 -5 28 -11 4 -5 12 -8 18 -6 17 6 47 -11
47 -27 0 -8 7 -20 16 -27 14 -11 18 -10 31 6 15 19 15 19 8 -3 -4 -14 -1 -28
10 -38 8 -9 13 -24 10 -34 -5 -14 1 -19 30 -22 19 -2 41 0 48 5 8 6 6 7 -7 3
-13 -5 -17 -2 -13 9 4 8 0 27 -8 42 -8 15 -12 36 -9 46 4 11 0 17 -11 17 -12
0 -16 6 -12 19 3 11 -1 28 -8 38 -16 23 -35 85 -42 138 -3 22 -9 47 -14 56 -4
9 -13 53 -18 99 -6 46 -14 86 -19 89 -4 3 -13 44 -20 90 -12 89 -45 154 -83
166 -11 4 -19 13 -19 21 0 14 -21 19 -32 8z m-488 -1410 c0 -22 -16 -17 -17 6
-1 11 2 18 8 15 5 -4 9 -13 9 -21z m210 6 c-20 -13 -70 -13 -70 0 0 6 19 10
43 10 31 0 38 -3 27 -10z m-5 -40 c3 -5 -3 -10 -14 -10 -12 0 -21 5 -21 10 0
6 6 10 14 10 8 0 18 -4 21 -10z"/>
<path d="M4481 4045 c0 -11 4 -29 9 -40 8 -18 9 -18 9 5 0 14 -4 32 -9 40 -8
12 -10 12 -9 -5z"/>
<path d="M4239 4048 c-5 -15 -3 -81 3 -84 4 -3 8 15 8 40 0 25 -2 46 -5 46 -3
0 -5 -1 -6 -2z"/>
<path d="M4515 3940 c3 -5 8 -10 11 -10 2 0 4 5 4 10 0 6 -5 10 -11 10 -5 0
-7 -4 -4 -10z"/>
<path d="M4210 3926 c0 -9 5 -16 10 -16 6 0 10 4 10 9 0 6 -4 13 -10 16 -5 3
-10 -1 -10 -9z"/>
<path d="M4547 3916 c-5 -13 21 -46 35 -46 10 0 -3 39 -17 50 -9 8 -14 7 -18
-4z"/>
<path d="M2297 3843 c-14 -13 -6 -33 13 -33 13 0 20 7 20 20 0 19 -20 27 -33
13z"/>
<path d="M4591 3824 c0 -11 3 -14 6 -6 3 7 2 16 -1 19 -3 4 -6 -2 -5 -13z"/>
<path d="M4575 3790 c3 -5 8 -10 11 -10 2 0 4 5 4 10 0 6 -5 10 -11 10 -5 0
-7 -4 -4 -10z"/>
<path d="M4421 3735 c-1 -15 -3 -17 -10 -6 -5 8 -11 9 -15 3 -9 -15 13 -27 26
-14 6 6 8 16 5 24 -3 8 -6 5 -6 -7z"/>
<path d="M4551 3704 c0 -11 3 -14 6 -6 3 7 2 16 -1 19 -3 4 -6 -2 -5 -13z"/>
<path d="M1840 3690 c0 -5 5 -10 10 -10 6 0 10 5 10 10 0 6 -4 10 -10 10 -5 0
-10 -4 -10 -10z"/>
<path d="M4523 3678 c-13 -32 -7 -82 16 -126 19 -35 20 -35 22 -12 1 14 2 31
2 37 -1 7 4 10 10 6 7 -4 8 0 2 13 -4 10 -14 37 -22 59 -18 50 -18 50 -30 23z"/>
<path d="M4431 3674 c0 -11 3 -14 6 -6 3 7 2 16 -1 19 -3 4 -6 -2 -5 -13z"/>
<path d="M4410 3650 c0 -11 4 -20 9 -20 5 0 7 9 4 20 -3 11 -7 20 -9 20 -2 0
-4 -9 -4 -20z"/>
<path d="M4260 3610 c0 -5 5 -10 10 -10 6 0 10 5 10 10 0 6 -4 10 -10 10 -5 0
-10 -4 -10 -10z"/>
<path d="M4424 3590 c4 -19 11 -68 17 -109 11 -76 26 -128 35 -119 2 3 0 27
-6 53 -6 26 -9 50 -6 52 3 3 0 17 -6 32 -6 14 -12 43 -13 65 -2 21 -9 43 -15
50 -10 9 -11 3 -6 -24z"/>
<path d="M2650 3599 c0 -6 7 -17 16 -26 8 -9 13 -22 10 -29 -6 -16 10 -19 19
-4 9 14 -17 70 -32 70 -7 0 -13 -5 -13 -11z"/>
<path d="M1910 3590 c0 -5 5 -10 11 -10 5 0 7 5 4 10 -3 6 -8 10 -11 10 -2 0
-4 -4 -4 -10z"/>
<path d="M4587 3563 c-2 -5 0 -19 4 -33 7 -23 7 -22 6 8 -1 33 -3 37 -10 25z"/>
<path d="M2710 3497 c0 -23 4 -36 10 -32 13 8 13 35 0 55 -7 11 -10 5 -10 -23z"/>
<path d="M4514 3486 c-4 -9 -2 -28 4 -42 7 -13 9 -37 5 -54 -4 -24 -8 -28 -19
-19 -11 9 -14 6 -14 -14 0 -14 4 -28 8 -31 5 -3 7 -45 5 -94 -3 -78 -1 -91 14
-96 15 -6 15 -8 3 -16 -12 -8 -12 -10 -1 -10 8 0 19 -8 26 -17 12 -16 15 -16
34 7 22 28 26 46 11 55 -13 8 -13 42 1 47 6 2 5 14 -5 33 -14 27 -14 31 -1 41
16 12 21 44 6 44 -4 0 -11 15 -15 33 -21 109 -48 168 -62 133z m43 -268 c-3
-8 -6 -5 -6 6 -1 11 2 17 5 13 3 -3 4 -12 1 -19z"/>
<path d="M240 3420 c0 -6 7 -10 15 -10 8 0 15 2 15 4 0 2 -7 6 -15 10 -8 3
-15 1 -15 -4z"/>
<path d="M4454 3285 c1 -33 7 -68 13 -79 10 -17 11 -17 15 5 8 33 2 90 -10 98
-5 3 -12 13 -15 21 -3 8 -5 -12 -3 -45z"/>
<path d="M4390 3294 c0 -8 5 -12 10 -9 6 4 8 11 5 16 -9 14 -15 11 -15 -7z"/>
<path d="M2087 3250 c-7 -27 11 -36 31 -16 15 15 15 18 2 26 -22 14 -27 12
-33 -10z"/>
<path d="M4486 3040 c5 -99 24 -152 24 -67 0 26 5 47 10 47 16 0 11 46 -6 61
-9 7 -20 22 -25 34 -5 12 -6 -18 -3 -75z"/>
<path d="M1570 3076 c0 -37 3 -45 18 -43 14 1 18 8 17 33 -4 66 -35 75 -35 10z"/>
<path d="M4376 3081 c-4 -5 -2 -12 3 -15 5 -4 12 -2 15 3 4 5 2 12 -3 15 -5 4
-12 2 -15 -3z"/>
<path d="M1534 3036 c-8 -22 3 -33 18 -18 9 9 9 15 0 24 -9 9 -13 7 -18 -6z"/>
<path d="M4375 3040 c3 -5 8 -10 11 -10 2 0 4 5 4 10 0 6 -5 10 -11 10 -5 0
-7 -4 -4 -10z"/>
<path d="M4450 3024 c0 -8 5 -12 10 -9 6 4 8 11 5 16 -9 14 -15 11 -15 -7z"/>
<path d="M1642 3013 c2 -9 8 -18 15 -20 7 -3 9 3 6 16 -6 25 -26 28 -21 4z"/>
<path d="M4537 3003 c-4 -3 -7 -18 -7 -32 0 -18 3 -22 9 -13 6 10 11 6 19 -17
13 -37 18 -39 16 -8 -4 57 -20 88 -37 70z"/>
<path d="M1540 2980 c0 -11 2 -20 4 -20 2 0 6 9 9 20 3 11 1 20 -4 20 -5 0 -9
-9 -9 -20z"/>
<path d="M1920 2975 c0 -9 5 -15 11 -13 6 2 11 8 11 13 0 5 -5 11 -11 13 -6 2
-11 -4 -11 -13z"/>
<path d="M1911 2914 c-7 -8 -10 -18 -6 -22 3 -3 9 -2 13 4 4 5 18 15 32 21
l25 12 -25 0 c-14 0 -31 -7 -39 -15z"/>
<path d="M4266 2898 c8 -27 12 -33 19 -27 7 8 -7 49 -17 49 -5 0 -6 -10 -2
-22z"/>
<path d="M1840 2900 c0 -5 5 -10 11 -10 5 0 7 5 4 10 -3 6 -8 10 -11 10 -2 0
-4 -4 -4 -10z"/>
<path d="M4411 2884 c0 -11 3 -14 6 -6 3 7 2 16 -1 19 -3 4 -6 -2 -5 -13z"/>
<path d="M4570 2873 c0 -18 5 -33 10 -33 13 0 13 30 0 50 -7 11 -10 7 -10 -17z"/>
<path d="M1995 2870 c-3 -5 -1 -10 4 -10 6 0 11 5 11 10 0 6 -2 10 -4 10 -3 0
-8 -4 -11 -10z"/>
<path d="M4430 2846 c0 -7 6 -19 14 -25 19 -16 32 5 16 24 -16 19 -30 19 -30
1z"/>
<path d="M4561 2810 c0 -14 4 -34 9 -45 7 -17 9 -16 9 10 0 17 -4 37 -9 45 -8
12 -10 10 -9 -10z"/>
<path d="M4385 2690 c-8 -13 5 -100 15 -100 4 0 11 -27 15 -60 4 -33 11 -60
15 -60 4 0 11 -22 15 -50 7 -53 24 -78 26 -38 1 19 3 17 12 -10 7 -24 7 -36 0
-40 -9 -6 -10 -29 -4 -64 0 -4 7 -5 14 -2 8 3 12 19 11 44 -1 22 2 42 6 45 12
7 20 -65 9 -83 -14 -24 11 -117 31 -117 12 0 14 11 12 53 -3 43 0 56 15 67 17
14 17 14 -3 15 -28 0 -52 73 -32 98 11 13 11 15 -4 9 -9 -3 -19 -1 -22 6 -3 9
-7 8 -15 -3 -8 -11 -9 -5 -4 23 4 24 2 37 -6 37 -6 0 -11 -9 -11 -19 0 -11 -4
-23 -10 -26 -10 -6 -15 50 -11 109 2 19 -1 26 -9 21 -8 -5 -11 4 -9 31 1 22
-4 53 -10 69 -6 17 -14 36 -16 43 -5 15 -21 16 -30 2z"/>
<path d="M4471 2614 c0 -11 3 -14 6 -6 3 7 2 16 -1 19 -3 4 -6 -2 -5 -13z"/>
<path d="M4526 2595 c4 -8 8 -15 10 -15 2 0 4 7 4 15 0 8 -4 15 -10 15 -5 0
-7 -7 -4 -15z"/>
<path d="M3031 2556 c-7 -8 -8 -17 -3 -20 6 -3 13 1 16 10 9 23 2 28 -13 10z"/>
<path d="M4530 2553 c0 -7 7 -13 15 -13 8 0 15 6 15 13 0 8 -7 14 -15 14 -8 0
-15 -6 -15 -14z"/>
<path d="M4516 2523 c6 -4 14 -15 17 -23 5 -11 6 -9 4 4 -1 11 -9 21 -17 23
-10 3 -11 2 -4 -4z"/>
<path d="M4562 2438 c3 -24 17 -40 29 -33 3 3 4 16 1 30 -6 32 -35 34 -30 3z"/>
<path d="M1489 2378 c-24 -116 -36 -349 -27 -534 4 -77 9 -186 12 -243 3 -65
10 -110 19 -120 7 -9 19 -29 25 -44 8 -18 18 -27 26 -24 8 3 17 -1 20 -10 4
-9 14 -13 26 -10 11 3 22 1 25 -3 3 -4 23 -6 45 -4 22 2 52 -1 67 -7 18 -7 30
-6 37 1 16 16 34 12 41 -10 6 -19 7 -18 31 7 17 18 35 27 59 27 19 1 35 4 35
9 0 4 15 7 34 7 23 0 36 -5 38 -16 2 -13 9 -11 40 10 l38 25 15 -21 c16 -23 4
-41 -21 -31 -6 2 -15 0 -18 -6 -4 -6 9 -13 30 -17 29 -5 40 -3 49 10 8 10 27
16 50 16 21 0 35 3 32 7 -4 3 -2 12 3 19 11 13 50 8 50 -7 0 -5 11 -9 25 -9
18 0 26 7 31 25 3 14 16 32 27 40 18 13 19 15 4 15 -32 0 -18 29 17 36 23 4
33 10 30 19 -8 20 35 30 49 11 12 -16 57 -12 57 5 0 5 9 9 20 9 17 0 19 4 14
28 -4 15 -15 44 -24 64 -12 26 -14 40 -7 47 8 8 5 11 -11 11 -17 0 -22 6 -22
24 0 14 -5 28 -11 32 -6 3 -9 20 -7 36 4 27 3 29 -20 23 -17 -4 -22 -2 -18 7
3 7 9 21 12 31 4 9 13 17 20 17 8 0 13 6 11 13 -1 6 3 11 8 10 6 -1 15 9 21
22 9 19 9 22 -2 18 -8 -3 -14 -8 -14 -12 0 -3 -15 -5 -33 -5 -17 1 -44 2 -59
3 -16 0 -28 5 -28 11 0 5 7 7 15 4 8 -4 22 -1 30 6 12 10 18 10 29 0 11 -8 20
-9 33 -1 10 6 12 11 6 11 -7 0 -13 6 -13 14 0 20 23 25 36 8 9 -13 12 -13 17
1 11 29 -27 40 -54 16 -31 -27 -44 -19 -44 25 0 22 -6 41 -15 46 -11 7 -5 10
22 10 43 0 49 6 37 38 -6 16 -16 23 -31 21 -13 -1 -36 3 -53 10 -16 7 -52 17
-79 22 -28 5 -60 16 -73 24 -12 8 -37 15 -55 15 -18 0 -46 7 -62 15 -18 9 -41
13 -57 10 -21 -5 -27 -2 -32 15 -3 13 -10 19 -17 15 -6 -4 -21 2 -33 13 -37
35 -91 51 -188 58 -69 4 -101 11 -120 25 -15 10 -34 19 -43 19 -9 0 -16 4 -16
8 0 13 -48 32 -65 26 -10 -4 -15 0 -15 10 0 39 -19 11 -31 -46z m588 -850 c-3
-8 -6 -5 -6 6 -1 11 2 17 5 13 3 -3 4 -12 1 -19z m-77 -18 c0 -5 -4 -10 -9
-10 -6 0 -13 5 -16 10 -3 6 1 10 9 10 9 0 16 -4 16 -10z m-48 -7 c-6 -2 -10
-9 -6 -14 3 -5 -2 -9 -12 -9 -13 0 -15 -6 -10 -32 9 -46 -13 -22 -24 26 l-8
36 37 -1 c20 0 30 -3 23 -6z m-77 -53 c11 -17 -5 -32 -21 -19 -8 6 -14 15 -14
20 0 12 27 11 35 -1z m445 -10 c0 -5 -4 -10 -9 -10 -6 0 -13 5 -16 10 -3 6 1
10 9 10 9 0 16 -4 16 -10z m-490 -10 c19 -12 10 -20 -34 -27 -28 -4 -36 -2
-36 10 0 24 42 35 70 17z"/>
<path d="M3090 2432 c0 -12 19 -26 26 -19 2 2 -2 10 -11 17 -9 8 -15 8 -15 2z"/>
<path d="M4551 2354 c0 -11 3 -14 6 -6 3 7 2 16 -1 19 -3 4 -6 -2 -5 -13z"/>
<path d="M3178 2273 c6 -2 18 -2 25 0 6 3 1 5 -13 5 -14 0 -19 -2 -12 -5z"/>
<path d="M4491 2234 c0 -11 3 -14 6 -6 3 7 2 16 -1 19 -3 4 -6 -2 -5 -13z"/>
<path d="M3192 2193 c11 -40 27 -67 36 -58 3 3 11 0 19 -6 10 -9 13 -7 13 9 0
11 -7 25 -15 32 -8 7 -15 20 -15 30 0 16 -18 30 -40 30 -5 0 -4 -17 2 -37z"/>
<path d="M2480 2154 c0 -8 5 -12 10 -9 6 4 8 11 5 16 -9 14 -15 11 -15 -7z"/>
<path d="M4510 2127 c0 -15 9 -29 25 -37 14 -7 25 -18 24 -24 -3 -26 2 -35 16
-30 17 7 21 34 5 34 -5 0 -10 5 -10 11 0 7 -13 25 -30 41 -30 28 -30 28 -30 5z"/>
<path d="M3239 2108 c-1 -2 -3 -25 -4 -53 -2 -47 13 -88 39 -107 6 -4 6 -11
-1 -20 -14 -19 9 -62 25 -46 13 13 16 -2 12 -51 -1 -13 4 -27 11 -32 10 -6 10
-13 2 -32 -14 -30 -9 -37 26 -37 l26 -1 -28 -17 c-23 -14 -27 -22 -22 -42 3
-14 6 -37 5 -52 0 -21 4 -28 19 -28 14 0 18 -5 14 -20 -4 -14 1 -21 21 -26 20
-5 25 -12 24 -33 -1 -14 -6 -31 -10 -38 -5 -6 -5 -14 2 -18 6 -3 8 -11 5 -16
-4 -5 3 -9 14 -9 12 0 21 -4 21 -10 0 -5 -10 -10 -23 -10 -35 0 -40 -11 -16
-36 27 -29 19 -40 -34 -50 -37 -7 -39 -8 -17 -14 60 -16 68 -22 66 -46 0 -15
-6 -22 -14 -19 -7 3 -10 0 -7 -5 3 -6 15 -10 26 -10 10 0 19 -4 19 -10 0 -5
-4 -10 -10 -10 -5 0 -10 -4 -10 -10 0 -5 9 -10 19 -10 13 0 23 11 31 36 12 36
9 43 -21 56 -4 2 -9 13 -13 25 -6 18 -4 22 8 17 8 -3 12 -12 9 -21 -5 -13 -1
-15 18 -10 37 9 52 -4 40 -36 -7 -18 -7 -36 1 -57 9 -26 8 -33 -8 -45 -18 -13
-18 -14 -1 -20 11 -5 16 -14 12 -24 -5 -16 52 -71 73 -71 5 0 16 -7 23 -16 12
-15 11 -19 -9 -32 -12 -8 -22 -21 -22 -28 0 -19 -10 -17 -38 6 -14 11 -20 24
-16 31 4 7 3 9 -4 5 -6 -3 -13 -2 -17 4 -10 16 -42 11 -49 -7 -3 -10 -9 -23
-12 -30 -3 -8 8 -14 33 -19 41 -7 57 -22 43 -39 -20 -24 37 -14 58 10 29 33
36 32 50 -9 12 -34 35 -51 53 -40 15 9 10 21 -11 27 -21 6 -18 30 7 55 16 16
17 38 3 47 -6 4 -8 15 -5 26 11 34 8 81 -5 89 -11 7 -10 15 5 44 15 28 17 38
7 48 -17 17 -15 53 3 68 20 16 19 40 -1 40 -13 0 -15 7 -11 29 7 33 -15 50
-39 30 -11 -9 -14 -8 -14 4 0 8 6 17 13 20 9 3 9 7 -1 20 -12 14 -8 16 35 19
52 3 62 22 13 24 -45 2 -59 11 -53 32 6 25 -13 38 -32 22 -12 -10 -16 -9 -21
5 -4 9 -2 21 5 28 8 8 11 8 11 -1 0 -7 7 -12 16 -12 9 0 14 7 12 18 -2 11 -11
16 -25 14 -18 -2 -22 4 -28 37 -5 29 -12 41 -28 45 -12 3 -32 21 -45 39 -19
28 -21 39 -12 61 16 43 13 66 -10 66 -11 0 -20 7 -20 15 0 8 -7 15 -16 15 -11
0 -14 8 -12 33 2 26 0 31 -14 29 -13 -2 -18 4 -18 23 0 14 -7 28 -15 31 -8 4
-15 12 -15 20 0 7 -8 18 -19 23 -10 6 -22 22 -25 35 -4 16 -11 23 -20 20 -10
-4 -16 3 -18 18 -2 12 -11 24 -20 26 -10 2 -19 2 -19 0z m136 -429 c0 -7 -8
-15 -17 -17 -18 -3 -25 18 -11 32 10 10 28 1 28 -15z m175 -63 c0 -3 -4 -8
-10 -11 -5 -3 -10 -1 -10 4 0 6 5 11 10 11 6 0 10 -2 10 -4z m0 -36 c0 -5 -2
-10 -4 -10 -3 0 -8 5 -11 10 -3 6 -1 10 4 10 6 0 11 -4 11 -10z m-92 -215
c-13 -6 -27 -8 -32 -4 -15 13 3 26 29 21 l26 -5 -23 -12z m128 -229 c15 -16
19 -36 6 -36 -14 0 -43 36 -35 43 9 10 13 9 29 -7z"/>
<path d="M2480 2060 c0 -5 5 -10 10 -10 6 0 10 5 10 10 0 6 -4 10 -10 10 -5 0
-10 -4 -10 -10z"/>
<path d="M2552 1980 c0 -14 2 -19 5 -12 2 6 2 18 0 25 -3 6 -5 1 -5 -13z"/>
<path d="M4520 1990 c0 -6 7 -10 15 -10 8 0 15 2 15 4 0 2 -7 6 -15 10 -8 3
-15 1 -15 -4z"/>
<path d="M2635 1959 c-10 -15 3 -25 16 -12 7 7 7 13 1 17 -6 3 -14 1 -17 -5z"/>
<path d="M4540 1941 c0 -12 -4 -20 -9 -16 -5 3 -12 1 -16 -5 -3 -5 1 -10 9
-10 21 0 20 -10 -1 -26 -11 -8 -13 -13 -5 -14 6 0 12 -12 12 -27 1 -27 1 -27
16 -8 10 13 13 35 11 68 -4 49 -17 78 -17 38z"/>
<path d="M3410 1940 c0 -5 5 -10 11 -10 5 0 7 5 4 10 -3 6 -8 10 -11 10 -2 0
-4 -4 -4 -10z"/>
<path d="M4578 1943 c7 -3 16 -2 19 1 4 3 -2 6 -13 5 -11 0 -14 -3 -6 -6z"/>
<path d="M4579 1884 c6 -3 8 -11 5 -19 -3 -7 0 -16 6 -20 8 -5 11 0 8 16 -1
12 -9 24 -16 25 -7 1 -8 0 -3 -2z"/>
<path d="M2480 1864 c0 -8 5 -12 10 -9 6 3 10 10 10 16 0 5 -4 9 -10 9 -5 0
-10 -7 -10 -16z"/>
<path d="M4507 1803 c-7 -12 2 -25 31 -41 18 -10 22 -10 22 3 0 8 -7 15 -15
15 -7 0 -18 7 -23 16 -5 9 -12 12 -15 7z"/>
<path d="M4540 1800 c0 -5 5 -10 10 -10 6 0 10 5 10 10 0 6 -4 10 -10 10 -5 0
-10 -4 -10 -10z"/>
<path d="M1111 1769 c-14 -6 -21 -15 -17 -24 3 -8 1 -17 -5 -21 -6 -3 -8 -12
-5 -20 3 -8 -1 -17 -9 -21 -11 -4 -13 -9 -5 -18 8 -10 5 -14 -14 -19 -15 -4
-26 -16 -31 -33 -3 -16 -14 -36 -23 -46 -14 -16 -14 -20 -2 -27 12 -8 12 -13
-1 -42 -17 -35 -15 -103 3 -125 7 -9 7 -18 -2 -28 -7 -8 -10 -29 -8 -47 6 -38
-6 -82 -44 -163 -9 -19 -8 -34 2 -65 11 -33 18 -40 39 -40 24 0 24 -1 5 -15
-10 -8 -32 -15 -47 -15 -41 0 -44 -25 -7 -60 18 -16 36 -30 40 -30 4 0 13 -6
20 -14 8 -11 24 -13 61 -9 50 6 70 -9 27 -21 -36 -9 -98 -7 -98 4 0 6 -7 10
-15 10 -8 0 -15 7 -15 15 0 9 -6 15 -12 14 -27 -4 -103 32 -103 48 0 6 -3 14
-7 18 -8 8 -68 -22 -68 -35 0 -6 -3 -9 -7 -8 -5 0 -25 -6 -45 -15 -21 -10 -41
-17 -46 -17 -5 0 -15 -13 -22 -30 -9 -21 -19 -30 -36 -30 -23 0 -74 -39 -74
-57 0 -6 -13 -24 -28 -39 -37 -37 -112 -176 -112 -206 0 -13 -7 -35 -14 -50
-22 -42 -27 -134 -11 -196 8 -30 12 -59 9 -63 -3 -5 0 -9 5 -9 6 0 11 -7 11
-15 0 -8 5 -15 10 -15 6 0 10 -9 10 -19 0 -23 83 -111 105 -111 8 0 15 7 15
16 0 11 5 14 17 9 37 -15 53 -17 53 -6 0 6 -11 11 -25 11 -14 0 -25 4 -25 10
0 5 -7 7 -15 4 -8 -4 -15 -1 -15 5 0 7 14 17 31 23 27 9 29 14 24 39 -5 24 -3
29 12 29 15 1 13 3 -6 14 -14 8 -30 12 -37 9 -16 -6 -27 27 -13 43 9 11 8 14
-2 14 -11 0 -11 2 1 9 8 6 18 7 24 4 5 -3 6 -1 2 6 -4 6 -2 19 6 28 10 13 10
17 1 20 -18 6 -16 26 5 62 20 35 29 38 48 13 9 -11 13 -13 14 -4 0 18 -25 42
-44 42 -23 0 -20 41 3 47 15 4 17 10 11 38 -8 37 8 73 28 61 7 -4 12 -2 12 3
0 6 -9 16 -20 23 -24 15 -26 28 -5 28 11 0 15 8 13 27 -3 26 -1 28 30 25 49
-5 89 7 95 28 3 11 -1 21 -9 24 -8 3 -14 10 -14 16 0 6 5 8 11 4 27 -16 79
-22 89 -9 12 15 66 13 83 -4 17 -17 37 -13 37 9 0 28 46 28 55 0 3 -11 15 -20
26 -20 14 0 19 7 19 28 0 15 4 34 10 42 8 12 11 12 28 -3 10 -9 22 -14 25 -10
4 3 7 -6 7 -21 0 -18 -7 -29 -22 -35 l-23 -8 23 -7 c12 -4 30 -18 38 -32 19
-28 40 -30 72 -8 12 8 22 11 22 5 0 -5 -5 -13 -12 -17 -7 -5 -4 -10 11 -16 27
-9 41 -3 41 19 0 10 15 0 39 -26 36 -38 76 -53 94 -34 8 7 -21 43 -35 43 -15
0 -38 27 -38 44 0 15 28 23 55 16 49 -12 51 -12 33 0 -24 15 -23 34 2 27 31
-8 25 22 -6 34 -21 7 -36 5 -69 -11 -23 -11 -50 -18 -59 -14 -24 9 -19 24 9
24 16 0 25 6 25 15 0 8 -6 15 -12 15 -10 0 -9 3 1 9 9 6 11 18 7 35 -6 24 -20
31 -53 27 -18 -2 -26 40 -14 73 6 15 11 43 11 62 0 20 7 43 16 52 15 14 15 17
-2 29 -10 7 -26 13 -35 13 -15 0 -30 13 -35 30 -12 39 -19 49 -37 52 -33 5
-34 23 -27 432 0 15 -4 34 -10 41 -8 9 -8 15 0 20 11 7 14 75 3 74 -5 0 -19
-5 -32 -10z m56 -876 c16 -43 48 -55 58 -23 6 17 35 30 35 14 0 -23 -24 -44
-50 -44 -17 0 -30 -5 -30 -12 0 -6 -9 -3 -20 7 -12 10 -18 25 -16 32 3 7 1 15
-5 18 -11 7 -3 25 12 25 5 0 13 -8 16 -17z m-267 -40 c0 -5 -4 -14 -9 -21 -7
-11 -9 -11 -14 1 -3 8 -3 18 0 21 9 8 23 7 23 -1z m87 -9 c-3 -3 -12 -4 -19
-1 -8 3 -5 6 6 6 11 1 17 -2 13 -5z m243 -35 c0 -5 -7 -9 -15 -9 -8 0 -15 7
-15 15 0 9 6 12 15 9 8 -4 15 -10 15 -15z m15 -59 c-3 -5 -13 -10 -21 -10 -8
0 -14 5 -14 10 0 6 9 10 21 10 11 0 17 -4 14 -10z"/>
<path d="M4510 1650 c0 -5 7 -10 15 -10 8 0 15 5 15 10 0 6 -7 10 -15 10 -8 0
-15 -4 -15 -10z"/>
<path d="M2590 1550 c0 -5 7 -10 16 -10 8 0 12 5 9 10 -3 6 -10 10 -16 10 -5
0 -9 -4 -9 -10z"/>
<path d="M2240 1380 c0 -24 15 -27 24 -4 9 22 8 24 -9 24 -8 0 -15 -9 -15 -20z"/>
<path d="M1870 1375 c-14 -16 -6 -35 16 -35 8 0 14 10 14 25 0 28 -12 32 -30
10z"/>
<path d="M4490 1375 c0 -8 5 -15 10 -15 6 0 10 7 10 15 0 8 -4 15 -10 15 -5 0
-10 -7 -10 -15z"/>
<path d="M1710 1351 c0 -5 6 -14 14 -20 10 -8 16 -8 25 3 9 11 8 15 -5 20 -22
8 -34 8 -34 -3z"/>
<path d="M4485 1280 c3 -5 8 -10 11 -10 2 0 4 5 4 10 0 6 -5 10 -11 10 -5 0
-7 -4 -4 -10z"/>
<path d="M3770 1240 c-8 -5 -10 -10 -5 -10 6 0 17 5 25 10 8 5 11 10 5 10 -5
0 -17 -5 -25 -10z"/>
<path d="M4520 1190 c0 -11 5 -20 10 -20 6 0 10 9 10 20 0 11 -4 20 -10 20 -5
0 -10 -9 -10 -20z"/>
<path d="M3751 1184 c0 -11 3 -14 6 -6 3 7 2 16 -1 19 -3 4 -6 -2 -5 -13z"/>
<path d="M3810 1156 c0 -2 9 -6 20 -9 11 -3 20 -1 20 4 0 5 -9 9 -20 9 -11 0
-20 -2 -20 -4z"/>
<path d="M3406 1094 c-5 -12 -2 -15 10 -10 8 3 18 6 20 6 2 0 4 5 4 10 0 16
-27 11 -34 -6z"/>
<path d="M2985 1080 c3 -5 8 -10 11 -10 2 0 4 5 4 10 0 6 -5 10 -11 10 -5 0
-7 -4 -4 -10z"/>
<path d="M4440 1021 c0 -11 5 -23 10 -26 6 -3 10 3 10 14 0 11 -4 23 -10 26
-5 3 -10 -3 -10 -14z"/>
<path d="M1320 981 c0 -11 5 -23 10 -26 6 -4 10 5 10 19 0 14 -4 26 -10 26 -5
0 -10 -9 -10 -19z"/>
<path d="M3775 950 c-3 -5 -2 -10 4 -10 5 0 13 5 16 10 3 6 2 10 -4 10 -5 0
-13 -4 -16 -10z"/>
<path d="M4400 928 c0 -15 5 -30 10 -33 18 -11 11 -23 -10 -18 -15 4 -20 0
-20 -14 0 -25 31 -61 47 -56 7 3 16 -2 19 -11 3 -9 11 -16 17 -16 5 0 3 8 -5
18 -9 9 -19 40 -23 69 -4 28 -13 60 -21 70 -12 17 -13 16 -14 -9z m21 -91
c-13 -13 -26 -3 -16 12 3 6 11 8 17 5 6 -4 6 -10 -1 -17z"/>
<path d="M3120 930 c0 -5 5 -10 11 -10 5 0 7 5 4 10 -3 6 -8 10 -11 10 -2 0
-4 -4 -4 -10z"/>
<path d="M3450 910 c0 -5 5 -10 10 -10 6 0 10 5 10 10 0 6 -4 10 -10 10 -5 0
-10 -4 -10 -10z"/>
<path d="M4450 906 c0 -9 5 -16 10 -16 6 0 10 4 10 9 0 6 -4 13 -10 16 -5 3
-10 -1 -10 -9z"/>
<path d="M3407 904 c-8 -9 -9 -64 -1 -64 13 0 35 31 32 47 -3 18 -20 27 -31
17z"/>
<path d="M3600 880 c0 -5 -16 -10 -37 -10 -20 0 -33 -3 -29 -7 4 -5 23 -8 42
-8 26 0 34 4 34 18 0 9 -2 17 -5 17 -3 0 -5 -4 -5 -10z"/>
<path d="M3110 850 c0 -5 5 -10 11 -10 5 0 7 5 4 10 -3 6 -8 10 -11 10 -2 0
-4 -4 -4 -10z"/>
<path d="M3456 842 c6 -4 13 -15 17 -24 3 -10 11 -18 16 -18 7 0 6 9 -1 25 -6
14 -18 25 -27 25 -10 0 -12 -3 -5 -8z"/>
<path d="M3360 810 c0 -5 5 -10 10 -10 6 0 10 5 10 10 0 6 -4 10 -10 10 -5 0
-10 -4 -10 -10z"/>
<path d="M4370 800 c-8 -5 -12 -12 -9 -15 8 -8 39 5 39 16 0 11 -11 11 -30 -1z"/>
<path d="M4370 750 c0 -5 5 -10 11 -10 5 0 7 5 4 10 -3 6 -8 10 -11 10 -2 0
-4 -4 -4 -10z"/>
<path d="M866 731 c-3 -4 1 -16 8 -26 9 -13 15 -15 20 -7 4 7 2 12 -4 12 -7 0
-10 7 -6 15 6 16 -9 21 -18 6z"/>
<path d="M4350 719 c0 -5 9 -9 19 -9 11 0 22 4 25 9 3 5 -6 9 -19 9 -14 0 -25
-4 -25 -9z"/>
<path d="M4370 691 c0 -16 27 -61 33 -55 8 8 -13 64 -24 64 -5 0 -9 -4 -9 -9z"/>
<path d="M720 680 c0 -5 4 -10 9 -10 6 0 13 5 16 10 3 6 -1 10 -9 10 -9 0 -16
-4 -16 -10z"/>
<path d="M4314 673 c-10 -22 -13 -103 -4 -103 4 0 11 10 17 22 9 20 10 19 28
-18 10 -21 24 -42 31 -46 6 -5 10 -17 7 -28 -3 -11 0 -20 6 -20 16 0 14 45 -3
59 -8 7 -18 26 -21 42 -4 16 -11 31 -16 34 -5 4 -9 14 -9 23 0 9 -7 25 -14 35
-13 17 -14 17 -22 0z"/>
<path d="M4440 680 c0 -5 5 -10 11 -10 5 0 7 5 4 10 -3 6 -8 10 -11 10 -2 0
-4 -4 -4 -10z"/>
<path d="M1178 673 c7 -3 16 -2 19 1 4 3 -2 6 -13 5 -11 0 -14 -3 -6 -6z"/>
<path d="M710 640 c0 -13 18 -22 24 -11 3 5 -1 11 -9 15 -8 3 -15 1 -15 -4z"/>
<path d="M3548 613 c7 -3 16 -2 19 1 4 3 -2 6 -13 5 -11 0 -14 -3 -6 -6z"/>
<path d="M4425 610 c-3 -5 -1 -10 4 -10 6 0 11 5 11 10 0 6 -2 10 -4 10 -3 0
-8 -4 -11 -10z"/>
<path d="M4263 566 c4 -10 7 -21 7 -26 0 -4 9 -10 21 -13 26 -7 20 -33 -7 -30
-24 3 -83 -76 -87 -115 -4 -36 -16 -55 -31 -49 -8 3 -10 -6 -8 -29 3 -20 10
-34 18 -34 8 0 14 -4 14 -10 0 -13 -13 -13 -28 2 -8 8 -14 5 -22 -16 -18 -50
-3 -106 29 -106 14 0 14 -6 1 -31 -8 -14 -8 -19 2 -17 7 2 14 -8 16 -22 4 -29
29 -60 49 -60 19 0 16 10 -11 31 -19 15 -26 33 -31 74 -6 48 -10 55 -26 50
-22 -7 -25 7 -5 24 10 9 16 9 21 1 7 -12 67 61 64 77 -5 19 15 43 35 43 18 0
17 4 -14 30 -19 16 -31 30 -26 30 5 0 18 -8 29 -17 15 -13 21 -15 24 -5 3 6
11 12 18 12 7 0 16 7 19 16 9 23 8 27 -8 21 -12 -5 -13 -1 -6 16 4 12 14 21
22 19 13 -2 -15 23 -36 32 -7 3 -4 9 7 16 9 6 17 18 17 26 0 8 5 12 10 9 6 -3
10 -13 10 -21 0 -8 9 -23 21 -35 l21 -21 -7 24 c-15 49 -50 102 -70 103 -11 2
-29 6 -39 10 -16 7 -18 5 -13 -9z m11 -132 c9 -24 7 -28 -9 -14 -17 14 -20 30
-6 30 5 0 12 -7 15 -16z"/>
<path d="M1470 550 c0 -13 20 -13 40 0 12 8 9 10 -12 10 -16 0 -28 -4 -28 -10z"/>
<path d="M658 449 c-20 -13 14 -21 42 -11 l24 9 -26 5 c-15 3 -32 1 -40 -3z"/>
<path d="M4345 360 c3 -5 13 -10 21 -10 8 0 12 5 9 10 -3 6 -13 10 -21 10 -8
0 -12 -4 -9 -10z"/>
<path d="M4350 300 c0 -19 3 -21 12 -12 9 9 9 15 0 24 -9 9 -12 7 -12 -12z"/>
<path d="M4256 282 c-2 -4 7 -12 20 -19 13 -6 24 -7 24 -2 0 12 -38 31 -44 21z"/>
<path d="M4254 236 c-10 -8 -16 -17 -13 -20 3 -3 14 3 24 14 21 23 17 26 -11
6z"/>
<path d="M4097 183 c-2 -4 -8 -22 -11 -39 -6 -26 -3 -32 18 -42 16 -7 28 -8
31 -2 4 6 2 10 -4 10 -6 0 -8 6 -5 13 6 15 -21 73 -29 60z"/>
<path d="M665 160 c-3 -5 1 -10 10 -10 9 0 13 5 10 10 -3 6 -8 10 -10 10 -2 0
-7 -4 -10 -10z"/>
<path d="M3886 151 c-4 -5 -2 -12 3 -15 5 -4 12 -2 15 3 4 5 2 12 -3 15 -5 4
-12 2 -15 -3z"/>
<path d="M4058 83 c-7 -10 -22 -23 -33 -29 -11 -6 -21 -21 -23 -33 -3 -19 1
-21 53 -21 52 0 55 1 45 19 -5 11 -10 33 -10 50 0 35 -12 40 -32 14z"/>
<path d="M4128 8 c9 -9 15 -9 24 0 9 9 7 12 -12 12 -19 0 -21 -3 -12 -12z"/>
</g>
</svg>
